<svg width="22" height="24" viewBox="0 0 22 24" fill="none" xmlns="http://www.w3.org/2000/svg">
<path d="M15.1833 15.3174H14.252L13.9219 14.9638C15.0772 13.4705 15.7728 11.532 15.7728 9.42313C15.7728 4.72081 12.3421 0.90918 8.10979 0.90918C3.87745 0.90918 0.446777 4.72081 0.446777 9.42313C0.446777 14.1255 3.87745 17.9371 8.10979 17.9371C10.0079 17.9371 11.7527 17.1643 13.0966 15.8806L13.415 16.2474V17.2822L19.3096 23.8183L21.0662 21.8666L15.1833 15.3174ZM8.10979 15.3174C5.17427 15.3174 2.80463 12.6846 2.80463 9.42313C2.80463 6.16163 5.17427 3.52886 8.10979 3.52886C11.0453 3.52886 13.415 6.16163 13.415 9.42313C13.415 12.6846 11.0453 15.3174 8.10979 15.3174Z" fill="#7184D6"/>
</svg>
