<svg width="44" height="55" viewBox="0 0 44 55" fill="none" xmlns="http://www.w3.org/2000/svg">
<ellipse cx="22" cy="21.8832" rx="22" ry="21.8832" fill="#7184D6"/>
<path d="M22 55L2.94744 33.1168H41.0526L22 55Z" fill="#7184D6"/>
<ellipse cx="22" cy="21.8826" rx="16.1333" ry="16.0477" fill="white"/>
<path d="M18.1862 23.1856L20.9533 20.4332L14.0893 13.6154C12.564 15.1326 12.564 17.5933 14.0893 19.1202L18.1862 23.1856ZM24.8155 21.4253C26.3115 22.1158 28.4138 21.6295 29.9684 20.0831C31.836 18.2254 32.1978 15.5606 30.7604 14.1309C29.3329 12.7109 26.6538 13.061 24.7764 14.9187C23.2218 16.4651 22.7329 18.5561 23.4271 20.0442L13.884 29.5366L15.2626 30.908L21.9995 24.2263L28.7267 30.9177L30.1053 29.5463L23.3782 22.855L24.8155 21.4253Z" fill="#7184D6"/>
</svg>
