<svg width="33" height="33" viewBox="0 0 33 33" fill="none" xmlns="http://www.w3.org/2000/svg">
<path fill-rule="evenodd" clip-rule="evenodd" d="M16.5 33C25.6127 33 33 25.6127 33 16.5C33 7.3873 25.6127 0 16.5 0C7.3873 0 0 7.3873 0 16.5C0 25.6127 7.3873 33 16.5 33ZM16.5002 28.7419C23.2613 28.7419 28.7422 23.261 28.7422 16.5C28.7422 9.73897 23.2613 4.25806 16.5002 4.25806C9.7392 4.25806 4.2583 9.73897 4.2583 16.5C4.2583 23.261 9.7392 28.7419 16.5002 28.7419Z" fill="#D76440"/>
<circle cx="16.5" cy="16.5" r="10.5" fill="#D76440"/>
<path fill-rule="evenodd" clip-rule="evenodd" d="M14.75 15.9258C16.0439 15.4788 17 13.9024 17 12.0263C17 9.80264 15.6569 8 14 8C12.3431 8 11 9.80264 11 12.0263C11 13.9024 11.9561 15.4788 13.25 15.9258V25H14.75V15.9258Z" fill="white"/>
<path d="M18.5 8H19V25H18L18.5 8Z" fill="white"/>
<path d="M20 8H20.5L21 25H20V8Z" fill="white"/>
</svg>
