<svg width="33" height="33" viewBox="0 0 33 33" fill="none" xmlns="http://www.w3.org/2000/svg">
<path fill-rule="evenodd" clip-rule="evenodd" d="M16.5 33C25.6127 33 33 25.6127 33 16.5C33 7.3873 25.6127 0 16.5 0C7.3873 0 0 7.3873 0 16.5C0 25.6127 7.3873 33 16.5 33ZM16.5002 28.7419C23.2613 28.7419 28.7422 23.261 28.7422 16.5C28.7422 9.73897 23.2613 4.25806 16.5002 4.25806C9.7392 4.25806 4.2583 9.73897 4.2583 16.5C4.2583 23.261 9.7392 28.7419 16.5002 28.7419Z" fill="#7184D6"/>
<circle cx="16.5" cy="16.5" r="10.5" fill="#7184D6"/>
<circle cx="12.5" cy="14.5" r="2.5" fill="white"/>
<path fill-rule="evenodd" clip-rule="evenodd" d="M8.04773 22.7309C8.0163 22.4923 8 22.2483 8 22C8 19.2386 10.0147 17 12.5 17C14.9853 17 17 19.2386 17 22C17 24.1673 15.759 26.0126 14.0234 26.7062C11.5911 26.1181 9.48926 24.6831 8.04773 22.7309Z" fill="white"/>
</svg>
