<svg width="44" height="54" viewBox="0 0 44 54" fill="none" xmlns="http://www.w3.org/2000/svg">
<rect width="44" height="49.0909" rx="2" fill="#7184D6"/>
<path d="M22 54L16.8038 49.0909H27.1962L22 54Z" fill="#7184D6"/>
<rect x="3.88232" y="3.85742" width="36.2353" height="41.1429" rx="2" fill="white"/>
<path d="M30.0979 16.5718L27.999 18.1076C27.999 18.1076 29.6672 20.2268 30.1485 23.146C30.4599 25.0288 30.7045 26.7082 30.5003 28.3037C30.4174 28.9556 29.8411 30.2705 29.6753 30.7124C29.5095 31.1544 29.2709 32.1952 30.009 32.4029C30.747 32.6107 33.1512 32.6902 33.5091 32.6372C33.867 32.5841 34.2897 32.3013 34.0976 31.3577C33.9783 30.7721 33.776 28.9401 33.6567 27.6916C33.5374 26.443 33.4647 24.0388 32.4698 21.0864C31.5012 18.2137 30.0979 16.5718 30.0979 16.5718Z" fill="#7184D6"/>
<path d="M32.0289 29.2431C33.1128 29.3116 33.8003 29.084 33.8003 29.084L33.9479 30.2839C33.9479 30.2839 33.2846 30.4894 32.037 30.4033C30.9471 30.3281 29.9624 30.0033 29.9624 30.0033L30.3688 28.8696C30.3668 28.8674 30.937 29.1746 32.0289 29.2431Z" fill="#7184D6"/>
<path d="M30.5332 25.9875C30.5332 25.9875 30.5534 26.3212 30.5635 26.5311C30.5736 26.7432 30.5777 27.0703 30.5777 27.0703C30.5777 27.0703 31.3966 27.1741 32.0437 27.1454C33.1032 27.099 33.5804 26.8228 33.5804 26.8228C33.5804 26.8228 33.5622 26.5642 33.5319 26.2593C33.5036 25.9521 33.4692 25.7002 33.4692 25.7002C33.4692 25.7002 32.9496 25.9808 31.8577 26.0582C31.0792 26.1134 30.5332 25.9875 30.5332 25.9875Z" fill="#7184D6"/>
<path d="M30.1143 22.9471C30.1143 22.9471 30.6117 23.0576 31.5378 22.8388C32.4376 22.6244 32.8238 22.251 32.8238 22.251C32.8238 22.251 32.9087 22.5383 32.9593 22.7592C33.0058 22.9648 33.0786 23.2653 33.0786 23.2653C33.0786 23.2653 32.7146 23.6564 31.7279 23.8686C30.7593 24.0785 30.278 23.9349 30.278 23.9349C30.278 23.9349 30.2315 23.652 30.1992 23.4421C30.1608 23.2034 30.1143 22.9471 30.1143 22.9471Z" fill="#7184D6"/>
<path d="M29.603 21.0797C29.603 21.0797 30.062 21.1128 30.9537 20.746C31.7322 20.4256 32.0659 19.9969 32.0659 19.9969L30.9699 17.3672L28.3433 18.4102L29.603 21.0797Z" fill="#7184D6"/>
<path d="M29.5564 17.8491C29.5564 17.8491 31.5866 18.5585 32.4824 18.8855C33.3781 19.2126 34.0919 19.3761 34.0919 19.3761C34.0919 19.3761 34.373 18.7662 34.4721 18.2403C34.5388 17.8911 34.5246 17.3431 34.6621 17.3541C34.8886 17.3718 35.0524 17.7917 35.0625 18.3618C35.0706 18.8524 34.9533 19.5816 34.9533 19.5816L35.9017 19.8645C35.9017 19.8645 36.1463 19.48 36.2838 18.8679C36.4274 18.227 36.3546 17.9839 36.4982 17.9397C36.6579 17.8911 36.9592 18.1187 36.9026 19.1308C36.8682 19.7474 36.7732 20.0987 36.8015 20.123C36.848 20.1628 37.305 20.3484 37.7195 20.4766C38.134 20.6026 38.5587 20.6843 38.5587 20.6843C38.5587 20.6843 39.3088 16.9895 37.214 15.4979C34.5934 13.6306 31.2246 15.299 31.2246 15.299L33.6936 13.1687C33.6936 13.1687 33.5156 12.687 33.2993 12.3202C33.0526 11.9003 32.723 11.6329 32.7857 11.5379C32.8706 11.4053 33.3802 11.4053 33.8149 11.8473C34.1809 12.2207 34.4579 12.6074 34.47 12.6185L35.196 12.0461C35.196 12.0461 35.1252 11.5268 34.9331 11.1976C34.7471 10.8772 34.464 10.5788 34.5348 10.5346C34.6844 10.4418 35.1495 10.6031 35.4427 10.9147C35.6954 11.1843 35.8996 11.602 35.8996 11.602L37.3757 10.4971C37.3757 10.4971 36.298 8.62977 34.0252 8.72037C31.7524 8.81097 30.525 10.4065 30.1428 10.8772C29.7607 11.3478 29.33 12.3644 29.33 12.3644L29.3724 9.54684C29.3724 9.54684 29.0186 9.45845 28.6789 9.41425C28.1673 9.34796 27.8114 9.46287 27.8033 9.40762C27.777 9.21095 28.0965 8.92367 28.6 8.80655C29.0934 8.69385 29.4917 8.76014 29.4917 8.76014L29.9083 6.12604C29.9083 6.12604 28.9802 6.04427 27.9449 6.58126C27.2756 6.9282 26.4991 7.52927 25.9835 8.50381C24.841 10.6584 25.943 12.9787 25.943 12.9787C25.943 12.9787 24.3294 11.1445 21.6462 11.8362C18.7041 12.5942 17.962 16.1233 18.1278 16.1233C18.5767 16.1233 20.2145 16.2072 20.2974 16.1343C20.3399 16.099 20.4531 15.6018 20.7221 15.1532C20.989 14.7046 21.3469 14.3267 21.6401 14.3267C21.7917 14.3267 21.5875 14.6604 21.4075 15.1421C21.2256 15.6327 21.1245 16.1785 21.1245 16.1785H22.5844C22.5844 16.1785 22.8917 14.5631 23.4053 14.4482C23.6257 14.3996 23.4761 14.9189 23.4215 15.3167C23.3649 15.7277 23.3325 16.1807 23.3325 16.1807L25.1807 16.2448C25.1807 16.2448 22.8048 16.4017 21.1568 18.0458C19.4522 19.743 19.2743 22.103 19.4239 23.2809C19.5735 24.4587 19.7232 25.0023 19.8223 25.0576C19.9213 25.1128 21.2984 23.4444 21.3489 23.3162C21.3995 23.1903 21.1325 22.6445 21.1325 21.9196C21.1325 21.1948 21.2822 20.8324 21.4136 20.8147C21.5471 20.797 21.5127 21.323 21.6118 21.776C21.7169 22.2511 21.8767 22.6467 21.9434 22.682C22.0101 22.7174 22.8189 21.597 22.8189 21.597C22.8189 21.597 22.6814 21.1727 22.637 20.7595C22.5925 20.3462 22.6309 19.8999 22.7401 19.8181C22.8594 19.7275 22.9605 20.2004 23.102 20.6048C23.2153 20.9274 23.2699 21.0379 23.3346 21.1241L24.7985 19.6015C24.7985 19.6015 23.6177 21.6633 23.7713 23.7162C23.9412 26.0122 25.3971 26.8718 25.48 26.852C25.5629 26.8343 26.5416 24.3858 26.5416 24.3858C26.5416 24.3858 26.1958 24.0389 25.939 23.5151C25.6155 22.8544 25.6235 22.3483 25.7449 22.2644C25.9147 22.1472 26.1594 22.8809 26.4081 23.208C26.6568 23.535 26.8064 23.7162 26.857 23.7162C26.9075 23.7162 27.6294 21.9926 27.6294 21.9926C27.6294 21.9926 27.4191 21.8578 27.2614 21.5904C27.128 21.365 27.0087 20.976 27.1219 20.7418C27.2432 20.618 27.3666 20.9385 27.5546 21.1064C27.7427 21.2744 27.8862 21.3583 27.8862 21.3583C27.8862 21.3583 28.6485 19.9264 28.9478 19.2546C29.2491 18.5762 29.5564 17.8491 29.5564 17.8491Z" fill="#7184D6"/>
<path d="M30.0356 18.8079C30.1286 18.7416 30.3167 17.3649 30.4057 16.6777C30.4865 16.0589 30.6847 15.133 30.254 15.0424C29.9588 14.9805 29.8354 15.438 29.7384 15.9285C29.6534 16.3661 29.5281 16.9605 29.5281 16.9605C29.5281 16.9605 29.1459 16.1584 28.8891 15.67C28.7031 15.3164 28.3027 14.5717 27.9832 14.7949C27.6172 15.0512 28.0136 15.8711 28.238 16.3241C28.4625 16.7771 28.7152 17.3052 28.7152 17.3052C28.7152 17.3052 28.0398 17.0533 27.6455 16.9207C27.2128 16.7749 26.6365 16.6467 26.5557 16.9009C26.4141 17.3428 26.9479 17.5638 27.9832 18.0257C29.0125 18.4831 29.8779 18.9206 30.0356 18.8079Z" fill="#7184D6"/>
<path d="M26.0701 10.265C26.0236 11.1666 26.1691 12.4793 26.7555 12.3334C27.2631 12.2097 26.6747 11.3589 26.6807 10.2827C26.6888 8.7734 27.5826 8.4132 27.3015 8.08835C27.073 7.82317 26.1449 8.79992 26.0701 10.265Z" fill="#7184D6"/>
<path d="M22.6549 12.7025C23.2109 12.5655 23.5608 12.5854 23.5729 12.4396C23.587 12.2517 23.4172 12.1192 22.6973 12.1589C22.0361 12.1943 21.3688 12.3843 20.7218 12.8639C20.357 13.134 20.0248 13.4533 19.733 13.8141C19.1143 14.5919 19.0212 15.2483 19.3913 15.33C19.7734 15.414 19.9514 14.9433 20.2405 14.4417C20.9361 13.2285 21.9937 12.8661 22.6549 12.7025Z" fill="#7184D6"/>
<path d="M20.2753 23.8159C20.5907 23.8026 20.5806 23.4734 20.5887 22.6226C20.5948 22.0679 20.5725 21.3475 20.7869 20.636C21.076 19.6791 21.5229 19.0714 22.0345 18.5587C22.5966 17.9952 23.1891 17.6571 23.5227 17.4936C24.1596 17.1776 23.8624 16.897 23.4398 17.0958C23.0192 17.2947 21.5876 17.8626 20.6534 19.4184C20.0448 20.4305 19.8931 21.2304 19.8668 22.2978C19.8486 23.1021 20.0609 23.8247 20.2753 23.8159Z" fill="#7184D6"/>
<path d="M25.104 20.5449C24.8472 20.5449 24.3761 21.873 24.4105 23.21C24.4428 24.5469 24.8452 25.4021 25.2031 25.559C25.4923 25.685 25.6985 25.3513 25.5914 24.8364C25.5206 24.5005 25.1364 23.9591 25.0616 23.084C24.9868 22.2067 25.1283 21.2499 25.1687 21.0156C25.2112 20.7792 25.2759 20.5449 25.104 20.5449Z" fill="#7184D6"/>
<path d="M16.6714 37.929L20.4773 37.1692L23.0151 35.6498L25.5525 32.6108L26.821 30.3316L28.0897 29.5718L35.588 28.2861L40.7645 28.929L41.4115 34.89V40.968L40.1431 46.2861L9.05859 45.5264L12.8651 40.2082L16.6714 37.929Z" fill="#7184D6"/>
</svg>
